<svg width="26" height="26" viewBox="0 0 26 26" fill="none" xmlns="http://www.w3.org/2000/svg">
<circle cx="13" cy="13" r="13" fill="#C4C4C4" fill-opacity="0.5"/>
<path fill-rule="evenodd" clip-rule="evenodd" d="M21 7.65713C20.4114 7.93821 19.7787 8.12837 19.1147 8.21377C19.7923 7.77623 20.313 7.08372 20.5579 6.25827C19.9237 6.6633 19.2211 6.95752 18.4734 7.11604C17.8747 6.42906 17.0216 6 16.0774 6C14.2646 6 12.7949 7.58227 12.7949 9.53414C12.7949 9.81108 12.8238 10.0809 12.8798 10.3397C10.1517 10.1923 7.73296 8.7851 6.11392 6.6467C5.83136 7.16877 5.66944 7.77589 5.66944 8.42363C5.66944 9.64979 6.24896 10.7316 7.12976 11.3655C6.59168 11.347 6.08544 11.1882 5.64304 10.9235C5.64272 10.938 5.64272 10.9529 5.64272 10.9677C5.64272 12.6802 6.77424 14.1086 8.27584 14.4334C8.00048 14.5142 7.7104 14.5576 7.41104 14.5576C7.19952 14.5576 6.99392 14.5353 6.79344 14.4939C7.2112 15.898 8.42336 16.92 9.85984 16.9485C8.73648 17.8964 7.32096 18.4615 5.78304 18.4615C5.51808 18.4615 5.2568 18.4447 5 18.412C6.45264 19.4148 8.17824 20 10.0318 20C16.0698 20 19.3715 14.6144 19.3715 9.94401C19.3715 9.79068 19.3683 9.63821 19.3621 9.4866C20.0035 8.98839 20.56 8.36589 21 7.65713Z" fill="white"/>
</svg>
