<svg width="26" height="26" viewBox="0 0 26 26" fill="none" xmlns="http://www.w3.org/2000/svg">
<circle cx="13" cy="13" r="13" fill="#C4C4C4" fill-opacity="0.5"/>
<path fill-rule="evenodd" clip-rule="evenodd" d="M16.0062 12.7728L11.4938 10.5172C11.4938 10.5172 10.2404 9.94726 10.2404 11.0186V16.031C10.2404 16.031 10.2636 16.7955 11.4938 16.2815C12.3498 15.9237 16.0062 14.0258 16.0062 14.0258C16.0062 14.0258 16.9391 13.4282 16.0062 12.7728ZM21.5213 17.7852C20.9624 19.3749 19.7669 19.5797 18.7637 19.7901C17.2852 20.1002 7.77237 20.0612 6.22922 19.5394C5.26706 19.2141 4.67503 19.0741 4.22386 16.7827C3.93499 15.3165 3.91592 11.003 4.22386 9.51494C4.52204 8.07408 5.27096 7.39753 6.73067 7.25928C10.6515 6.88785 17.205 6.94029 19.265 7.25928C21.1748 7.55486 21.5739 8.69385 21.772 9.76545C22.0927 11.5004 22.1304 16.0524 21.5213 17.7852Z" fill="white"/>
</svg>
